<?xml version="1.0" encoding="UTF-8"?>
<svg version="1.1" xmlns="http://www.w3.org/2000/svg" width="479" height="521">
<path d="M0 0 C0 1.98 0 3.96 0 6 C0.99 5.67 1.98 5.34 3 5 C19.55066456 3.89662236 36.95458236 9.55586114 51 18 C51 18.66 51 19.32 51 20 C52.19625 20.268125 53.3925 20.53625 54.625 20.8125 C55.44097656 20.99554688 56.25695312 21.17859375 57.09765625 21.3671875 C59.2060036 21.826881 61.31864227 22.26702881 63.43359375 22.6953125 C69.8908272 24.01595228 75.91160973 25.47274366 82 28 C82.99 28.33 83.98 28.66 85 29 C85 29.66 85 30.32 85 31 C85.52851563 31.20882812 86.05703125 31.41765625 86.6015625 31.6328125 C89.99269519 33.56586859 92.57115285 36.18098097 95.375 38.875 C98.57713917 41.9499514 101.61730935 44.74577124 105.328125 47.2109375 C108.34055185 49.22803033 109.04514024 50.56250486 110 54 C110.66 54 111.32 54 112 54 C112 54.99 112 55.98 112 57 C111.01 57 110.02 57 109 57 C109 56.34 109 55.68 109 55 C108.34 55 107.68 55 107 55 C107 54.34 107 53.68 107 53 C106.443125 52.7525 105.88625 52.505 105.3125 52.25 C103 51 103 51 100.875 49.125 C96.22435381 45.68756586 90.8345578 44.03114051 85.43359375 42.06640625 C82.96108541 40.98294754 81.16029258 39.748456 79.0625 38.0625 C75.86616392 35.58185208 72.70611538 33.66775192 69 32 C68.67 33.32 68.34 34.64 68 36 C65.5 34.75 65.5 34.75 63 33 C63 31.68 63 30.36 63 29 C62.09507812 29.05220703 62.09507812 29.05220703 61.171875 29.10546875 C54.63799438 29.32677761 54.63799438 29.32677761 51.4375 27.6875 C50 26 50 26 50 23 C48.58297487 23.14230808 47.1663904 23.28900746 45.75 23.4375 C44.96109375 23.51871094 44.1721875 23.59992188 43.359375 23.68359375 C41.17635361 23.97634993 39.1226818 24.42064419 37 25 C37 24.34 37 23.68 37 23 C36.01 23.33 35.02 23.66 34 24 C32.79218794 27.62343618 32.68389281 31.09498105 32.5 34.875 C32.28126796 39.32255153 32.02357392 43.64981085 31 48 C30.34 48 29.68 48 29 48 C28.67 43.38 28.34 38.76 28 34 C27.34 35.32 26.68 36.64 26 38 C22.58004434 34.58004434 22.75872725 30.94735036 22.4375 26.3125 C22.35371094 25.13300781 22.26992188 23.95351562 22.18359375 22.73828125 C22.12300781 21.83464844 22.06242188 20.93101563 22 20 C21.01 20 20.02 20 19 20 C19.01160156 20.90878906 19.02320313 21.81757812 19.03515625 22.75390625 C19.10074176 31.88903054 18.72345524 40.89221529 18 50 C17.34 50 16.68 50 16 50 C15.01 40.43 14.02 30.86 13 21 C10.03 21 7.06 21 4 21 C1.84397306 23.33749166 1.84397306 23.33749166 1 26 C0.01 25.67 -0.98 25.34 -2 25 C-2 24.34 -2 23.68 -2 23 C-2.66 23 -3.32 23 -4 23 C-4.72458067 32.94127532 -5.22030297 42.8591776 -5.5 52.82421875 C-5.54068574 54.18651807 -5.58170912 55.54880734 -5.62304688 56.91108704 C-5.77344802 61.88926032 -5.91834667 66.86758962 -6.0625 71.84594727 C-6.18532523 76.08341785 -6.31076401 80.32079519 -6.43969727 84.55808449 C-6.49813696 86.51193078 -6.55284096 88.46588769 -6.60742188 90.41984558 C-6.83643306 97.97486058 -7.28521829 105.47511166 -8 113 C-8.66 113 -9.32 113 -10 113 C-9.99777939 112.38042419 -9.99555878 111.76084839 -9.99327087 111.12249756 C-9.97083126 104.5665343 -9.95593561 98.01058226 -9.94506836 91.45458984 C-9.94009593 89.02066605 -9.93331563 86.58674516 -9.92456055 84.15283203 C-9.87769683 70.77186145 -9.96399531 57.44845275 -10.77124023 44.08911133 C-11.62645501 29.87936502 -11.62645501 29.87936502 -10 25 C-15.91223889 25.72394762 -21.35849376 27.11949792 -27 29 C-28.93078097 29.26044003 -30.86675335 29.48320566 -32.8046875 29.68359375 C-33.94550781 29.80669922 -35.08632812 29.92980469 -36.26171875 30.05664062 C-38.66244098 30.30968973 -41.06348439 30.55971085 -43.46484375 30.80664062 C-44.60824219 30.93103516 -45.75164062 31.05542969 -46.9296875 31.18359375 C-47.97366699 31.29243896 -49.01764648 31.40128418 -50.09326172 31.51342773 C-53.02567219 32.00429739 -55.3647381 32.62096774 -58 34 C-59.22883134 37.20672532 -59.22883134 37.20672532 -59.75 40.9375 C-59.97171875 42.18402344 -60.1934375 43.43054688 -60.421875 44.71484375 C-60.61265625 45.79894531 -60.8034375 46.88304687 -61 48 C-61.33 48.99 -61.66 49.98 -62 51 C-62.12317073 52.45674076 -62.20054059 53.91767746 -62.24609375 55.37890625 C-62.29540039 56.63670898 -62.29540039 56.63670898 -62.34570312 57.91992188 C-62.40703202 59.68541125 -62.46430676 61.451046 -62.51757812 63.21679688 C-62.55173828 64.05404297 -62.58589844 64.89128906 -62.62109375 65.75390625 C-62.6461499 66.52033447 -62.67120605 67.2867627 -62.69702148 68.07641602 C-63 70 -63 70 -65 72 C-66.83669523 70.16330477 -66.19597851 67.20132701 -66.24609375 64.734375 C-66.27896484 63.45175781 -66.31183594 62.16914062 -66.34570312 60.84765625 C-66.39297163 58.80261974 -66.43735329 56.75760506 -66.47680664 54.71240234 C-66.51674456 52.7403778 -66.56879046 50.76861033 -66.62109375 48.796875 C-66.6461499 47.61448242 -66.67120605 46.43208984 -66.69702148 45.21386719 C-66.99194548 42.08543892 -67.66992465 39.8271169 -69 37 C-75.08000393 39.64400972 -81.0818184 42.44851939 -87 45.4375 C-88.0725 45.97246094 -89.145 46.50742188 -90.25 47.05859375 C-94.06914909 49.75478281 -95.41004994 52.70022978 -96.55664062 57.16992188 C-97.14098032 60.89991399 -97.21438176 64.60442247 -97.28125 68.37109375 C-97.29965942 69.17104263 -97.31806885 69.97099152 -97.33703613 70.79518127 C-97.39553529 73.34254929 -97.4484474 75.88998252 -97.5 78.4375 C-97.56799403 81.79049525 -97.6416834 85.14329613 -97.71875 88.49609375 C-97.73232544 89.2587706 -97.74590088 90.02144745 -97.7598877 90.80723572 C-97.85584069 94.96376333 -98.19961317 98.90449838 -99 103 C-100.485 102.505 -100.485 102.505 -102 102 C-102.03758423 100.57119507 -102.03758423 100.57119507 -102.07592773 99.11352539 C-102.17091814 95.54066133 -102.27090548 91.96795083 -102.37231445 88.39526367 C-102.41532019 86.85623801 -102.45701529 85.31717509 -102.49731445 83.77807617 C-102.70991066 73.70872175 -102.70991066 73.70872175 -103.59765625 63.68359375 C-103.94862193 60.47038369 -103.87940496 58.96364786 -103 56 C-105.62183209 57.13376523 -107.5692288 58.05315637 -108.7890625 60.734375 C-109.23346168 62.11576041 -109.67745151 63.49727756 -110.12109375 64.87890625 C-111.38271337 67.92361492 -113.36251822 70.0013435 -115.5859375 72.39453125 C-117.18834497 74.10262477 -117.18834497 74.10262477 -118.625 76.875 C-119.07875 77.57625 -119.5325 78.2775 -120 79 C-120.680625 79.144375 -121.36125 79.28875 -122.0625 79.4375 C-122.701875 79.623125 -123.34125 79.80875 -124 80 C-125.25 82.91666667 -125.25 82.91666667 -126 86 C-126.33 86.66 -126.66 87.32 -127 88 C-127.10375793 89.4987257 -127.18350705 90.99915919 -127.25 92.5 C-127.69014518 97.57634107 -129.31537653 101.19757096 -131.84375 105.578125 C-134.87060763 111.91816463 -134.06856824 119.07313175 -133.9609375 125.92382812 C-133.91481187 130.74011262 -134.18186831 135.25100123 -135 140 C-137 138 -137 138 -137.22705078 135.66162109 C-137.21657715 134.70852051 -137.20610352 133.75541992 -137.1953125 132.7734375 C-137.18886719 131.7421875 -137.18242187 130.7109375 -137.17578125 129.6484375 C-137.15902344 128.56820312 -137.14226562 127.48796875 -137.125 126.375 C-137.11597656 125.28703125 -137.10695312 124.1990625 -137.09765625 123.078125 C-137.07403409 120.38519848 -137.04109556 117.69270745 -137 115 C-137.66 115 -138.32 115 -139 115 C-139.62923584 117.74908861 -140.25342016 120.49917856 -140.875 123.25 C-141.04902344 124.00796875 -141.22304687 124.7659375 -141.40234375 125.546875 C-141.96027885 128.02658656 -142.4877186 130.51045149 -143 133 C-143.18965332 133.91942383 -143.37930664 134.83884766 -143.57470703 135.78613281 C-145.05053857 143.65112325 -145.23772898 151.26358564 -145.125 159.25 C-145.11597656 160.48363281 -145.10695312 161.71726563 -145.09765625 162.98828125 C-145.07436851 165.99240024 -145.04166756 168.99608943 -145 172 C-146.32 171.67 -147.64 171.34 -149 171 C-149 172.32 -149 173.64 -149 175 C-148.01 175.33 -147.02 175.66 -146 176 C-142.90036747 183.04461938 -145.37010511 193.62123129 -146 201 C-145.34 200.34 -144.68 199.68 -144 199 C-141.75519358 204.61201606 -140.16651426 210.07136283 -139 216 C-137.35 216.33 -135.7 216.66 -134 217 C-133.67 218.98 -133.34 220.96 -133 223 C-132.26007813 223.01933594 -131.52015625 223.03867187 -130.7578125 223.05859375 C-127.33063358 224.22849477 -126.50260381 225.87865002 -124.86743164 229.015625 C-124.5399292 229.69109375 -124.21242676 230.3665625 -123.875 231.0625 C-123.52880615 231.74699219 -123.1826123 232.43148437 -122.82592773 233.13671875 C-119.41707033 239.96904642 -116.79724747 246.34642432 -116 254 C-115.34 254 -114.68 254 -114 254 C-112.68846237 255.46809505 -111.45005925 257.00195784 -110.25 258.5625 C-104.9379448 266.21445368 -104.9379448 266.21445368 -98 272 C-96.56433053 272.12692559 -95.12628212 272.22786576 -93.6875 272.3125 C-89.29820753 272.76124556 -87.24980299 273.92586204 -84 277 C-82.4221875 277.8353125 -82.4221875 277.8353125 -80.8125 278.6875 C-76.90343477 281.9016203 -76.60327473 285.13219704 -76 290 C-75.34 290 -74.68 290 -74 290 C-74 290.66 -74 291.32 -74 292 C-73.1028125 292.433125 -73.1028125 292.433125 -72.1875 292.875 C-70 294 -70 294 -67 296 C-66.67 295.01 -66.34 294.02 -66 293 C-64.25 292.0625 -64.25 292.0625 -62 292 C-58.21659658 294.39923144 -55.99616809 297.00766382 -54 301 C-54 301.66 -54 302.32 -54 303 C-48.02312012 304.93844753 -41.97672713 306.57198034 -35.875 308.0625 C-35.23828369 308.22459961 -34.60156738 308.38669922 -33.94555664 308.55371094 C-20.19329184 311.83813218 -6.31645364 312.37306309 7.75463867 312.37060547 C10.56294497 312.3750007 13.36970156 312.41154017 16.17773438 312.44921875 C27.13707506 312.51835202 36.60361407 311.59488424 47 308 C47.86858643 307.70158203 48.73717285 307.40316406 49.63208008 307.09570312 C51.81985771 306.29955988 53.97254369 305.4491797 56.125 304.5625 C57.64303429 303.95263969 59.16126506 303.34326824 60.6796875 302.734375 C61.40768555 302.43982422 62.13568359 302.14527344 62.88574219 301.84179688 C64.85445997 301.05794712 66.83146872 300.30914815 68.8203125 299.578125 C75.456902 297.12908742 81.0679777 295.02087146 86.0625 289.875 C88.23657898 287.7710526 90.15241746 286.94919418 93 286 C93 285.34 93 284.68 93 284 C94.57286684 282.58561594 96.21139996 281.24395599 97.875 279.9375 C102.69301088 276.10047587 107.2424194 272.08452876 111.7109375 267.84765625 C114.06619015 265.94657348 116.14666993 264.96287287 119 264 C117.1624434 267.95474138 114.83614018 271.57785633 112.5 275.25 C112.09652344 275.8996875 111.69304687 276.549375 111.27734375 277.21875 C110.23975959 278.84875019 109.12546338 280.42939066 108 282 C107.34 282 106.68 282 106 282 C105.75765625 282.74121094 105.5153125 283.48242188 105.265625 284.24609375 C102.30725767 290.68328193 95.02469623 295.47334855 89 299 C88.34 299 87.68 299 87 299 C87 299.66 87 300.32 87 301 C84.03812728 303.17204 81.49314009 304.83561997 78 306 C78 306.66 78 307.32 78 308 C77.34 308 76.68 308 76 308 C75.731875 308.845625 75.46375 309.69125 75.1875 310.5625 C74.795625 311.696875 74.40375 312.83125 74 314 C73.71125 315.2375 73.4225 316.475 73.125 317.75 C71 321 71 321 68.13671875 321.88671875 C65.08849335 322.39177137 62.08015762 322.76600353 59 323 C60.7058258 325.77119784 60.7058258 325.77119784 62 327 C62.10007008 329.82256491 62.13875598 332.6152319 62.125 335.4375 C62.12886719 336.22705078 62.13273437 337.01660156 62.13671875 337.83007812 C62.12663067 343.74673867 62.12663067 343.74673867 61 346 C60.34 346 59.68 346 59 346 C59 377.02 59 408.04 59 440 C58.01 440 57.02 440 56 440 C54.82944517 428.56242615 54.84634442 417.17191493 54.875 405.6875 C54.87555389 404.70409637 54.87610779 403.72069275 54.87667847 402.70748901 C54.88614965 388.33358335 55.11446563 373.98284989 55.73193359 359.62182617 C55.78043457 358.4279126 55.82893555 357.23399902 55.87890625 356.00390625 C55.9260376 354.98111572 55.97316895 353.9583252 56.02172852 352.90454102 C55.99878592 349.83770923 55.58150673 347.00710862 55 344 C54.01 343.67 53.02 343.34 52 343 C51.86722656 342.01257813 51.73445312 341.02515625 51.59765625 340.0078125 C51.42105469 338.72648437 51.24445313 337.44515625 51.0625 336.125 C50.88847656 334.84882813 50.71445312 333.57265625 50.53515625 332.2578125 C50.18566773 329.12440546 50.18566773 329.12440546 49 327 C48.34 327 47.68 327 47 327 C46.67 328.98 46.34 330.96 46 333 C44.68 332.34 43.36 331.68 42 331 C41.34 331.99 40.68 332.98 40 334 C39.14019531 333.79761719 38.28039062 333.59523438 37.39453125 333.38671875 C33.54834844 332.94854602 31.32506684 333.55556299 27.6875 334.8125 C4.11415441 342.57217108 -20.56753902 339.90866522 -45 339 C-45.30760254 339.78793945 -45.61520508 340.57587891 -45.93212891 341.38769531 C-47 344 -47 344 -48.0859375 345.796875 C-49.48610438 349.17163621 -49.47214184 352.64509514 -49.625 356.25 C-49.68300781 357.36761719 -49.68300781 357.36761719 -49.7421875 358.5078125 C-49.83605108 360.3381524 -49.91909718 362.16904143 -50 364 C-50.66 364 -51.32 364 -52 364 C-52.968065 358.24414066 -53.05488215 352.69728588 -52.87304688 346.87304688 C-52.80164699 342.50085367 -53.3843748 339.06123824 -55 335 C-57.64 335.66 -60.28 336.32 -63 337 C-64.34721456 354.07681025 -65.56978004 370.89198506 -64 388 C-63.85304687 389.69962891 -63.85304687 389.69962891 -63.703125 391.43359375 C-63.49642866 393.62518286 -63.25508988 395.8135153 -63 398 C-63.66 398.33 -64.32 398.66 -65 399 C-65 415.17 -65 431.34 -65 448 C-65.99 448.33 -66.98 448.66 -68 449 C-68 433.16 -68 417.32 -68 401 C-69.32 400.67 -70.64 400.34 -72 400 C-72.05425013 397.12474331 -72.09379277 394.25052354 -72.125 391.375 C-72.14175781 390.56675781 -72.15851563 389.75851562 -72.17578125 388.92578125 C-72.18222656 388.13300781 -72.18867188 387.34023438 -72.1953125 386.5234375 C-72.20578613 385.80075684 -72.21625977 385.07807617 -72.22705078 384.33349609 C-72 382 -72 382 -71 379.24609375 C-69.78289457 375.29525541 -69.74890653 371.62696409 -69.8046875 367.5390625 C-69.8075174 366.74849457 -69.81034729 365.95792664 -69.81326294 365.1434021 C-69.82439045 362.63710916 -69.84948074 360.13118355 -69.875 357.625 C-69.88503942 355.91797394 -69.89416359 354.21094223 -69.90234375 352.50390625 C-69.92430537 348.3357976 -69.95878329 344.16796092 -70 340 C-70.99 339.67 -71.98 339.34 -73 339 C-73.66 342.63 -74.32 346.26 -75 350 C-75.99 350.33 -76.98 350.66 -78 351 C-78.99 342.09 -78.99 342.09 -80 333 C-80.66 333 -81.32 333 -82 333 C-82 353.79 -82 374.58 -82 396 C-82.99 395.67 -83.98 395.34 -85 395 C-85.33 374.87 -85.66 354.74 -86 334 C-86.66 334 -87.32 334 -88 334 C-88 336.31 -88 338.62 -88 341 C-88.99 341 -89.98 341 -91 341 C-92 334.25 -92 334.25 -92 332 C-92.94617188 331.69449219 -93.89234375 331.38898438 -94.8671875 331.07421875 C-105.50932613 327.45692668 -114.59081244 322.33735563 -124.01757812 316.26708984 C-126.68762619 314.56049508 -129.40145703 312.9320079 -132.125 311.3125 C-132.89070313 310.85488281 -133.65640625 310.39726562 -134.4453125 309.92578125 C-134.95835937 309.62027344 -135.47140625 309.31476563 -136 309 C-136.6483289 311.22844214 -137.29356369 313.4577846 -137.9375 315.6875 C-138.29714844 316.92886719 -138.65679687 318.17023438 -139.02734375 319.44921875 C-139.80726431 322.29639862 -140.47287216 325.09802254 -141 328 C-141.66 328 -142.32 328 -143 328 C-143.90041311 319.97667603 -144.11547323 312.07029553 -144 304 C-144.66 304 -145.32 304 -146 304 C-146.66 302.35 -147.32 300.7 -148 299 C-148.66 299 -149.32 299 -150 299 C-150 298.34 -150 297.68 -150 297 C-151.98 296.34 -153.96 295.68 -156 295 C-158.33682381 299.6003355 -158.20171456 303.60483849 -158.0625 308.625 C-157.94792703 313.52193349 -157.98334465 318.29144564 -158.4921875 323.16796875 C-159.17529086 330.00738399 -159.10877917 336.82038249 -159.0625 343.6875 C-159.05798828 344.97333984 -159.05347656 346.25917969 -159.04882812 347.58398438 C-159.03716001 350.72270653 -159.02079015 353.86132728 -159 357 C-159.66 357.33 -160.32 357.66 -161 358 C-162.65966912 354.68066175 -162.07681772 350.97346958 -162.02734375 347.328125 C-162.01467369 345.52995001 -162.00231456 343.7317728 -161.99023438 341.93359375 C-161.9656549 339.11011786 -161.93794121 336.28675894 -161.90405273 333.46337891 C-161.74075689 318.94676377 -161.99136367 305.26084037 -167 291.4375 C-167.26039063 290.68404297 -167.52078125 289.93058594 -167.7890625 289.15429688 C-168.50627977 287.09501395 -169.24639127 285.04619757 -170 283 C-170.5259375 281.56333984 -170.5259375 281.56333984 -171.0625 280.09765625 C-171.92157005 277.8404 -171.92157005 277.8404 -174 276 C-174.14501953 274.06253906 -174.14501953 274.06253906 -174.29296875 272.0859375 C-174.85639543 265.945937 -177.5326363 261.04807175 -180.3125 255.625 C-185.71966683 244.91093168 -189.75414407 234.34175058 -192.875 222.75 C-193.86940275 219.20021064 -193.86940275 219.20021064 -194.96948242 216.67578125 C-198.29695465 208.57542584 -198.91863356 200.64519679 -199.3125 192 C-199.39020323 190.52294415 -199.46800347 189.04589341 -199.54589844 187.56884766 C-200.06713261 176.99230177 -200.14302794 166.53760496 -199 156 C-198.92201172 155.27570801 -198.84402344 154.55141602 -198.76367188 153.80517578 C-197.41898181 141.83796362 -197.41898181 141.83796362 -196 139 C-195.84729357 137.58605156 -195.72632547 136.16855652 -195.625 134.75 C-195.21853286 130.62535803 -194.12576392 127.60455622 -192 124 C-191.34 124 -190.68 124 -190 124 C-190.33 123.319375 -190.66 122.63875 -191 121.9375 C-192.20546603 118.39644353 -192.3382573 115.72083033 -192 112 C-191.04422943 110.63461347 -190.03647024 109.30518475 -189 108 C-187.24036415 103.84688098 -186.10702553 99.48372334 -185.02734375 95.11328125 C-184.85710693 94.43563721 -184.68687012 93.75799316 -184.51147461 93.05981445 C-184.17332732 91.6980251 -183.8470874 90.33321783 -183.53344727 88.96557617 C-183.0625 87.0625 -183.0625 87.0625 -182 84 C-180.515 83.505 -180.515 83.505 -179 83 C-178.67 83.99 -178.34 84.98 -178 86 C-175.07321751 80.44920563 -172.8331267 74.99932374 -171 69 C-170.34 69 -169.68 69 -169 69 C-168.505 69.99 -168.505 69.99 -168 71 C-167.67 70.34 -167.34 69.68 -167 69 C-166.34 69 -165.68 69 -165 69 C-164.773125 68.484375 -164.54625 67.96875 -164.3125 67.4375 C-159.04890258 57.66224765 -152.21644262 53.94221427 -142 50 C-142 49.34 -142 48.68 -142 48 C-138.45872721 45.4590218 -134.71717327 43.28099269 -131 41 C-138.425 41.99 -138.425 41.99 -146 43 C-146 41.68 -146 40.36 -146 39 C-144.1640625 37.47265625 -144.1640625 37.47265625 -141.625 36.0625 C-140.70203125 35.54558594 -139.7790625 35.02867188 -138.828125 34.49609375 C-135.52262856 32.74746787 -132.20997105 31.03151605 -128.84765625 29.39453125 C-126.76100866 28.37267502 -124.68714552 27.32460087 -122.62109375 26.26171875 C-103.30552035 16.33350894 -83.74610742 6.37907864 -61.73828125 5.27734375 C-58.32966197 4.93210556 -55.95331268 3.68760725 -53 2 C-46.66228545 0.78022452 -40.24934444 0.6666814 -33.8125 0.4375 C-32.67441895 0.3950415 -31.53633789 0.35258301 -30.36376953 0.30883789 C-20.23961151 -0.04288212 -10.12875753 -0.10288806 0 0 Z M-170 72 C-169 74 -169 74 -169 74 Z M-141 99 C-140 103 -140 103 -140 103 Z M-142 103 C-142.33 104.98 -142.66 106.96 -143 109 C-142.34 108.01 -141.68 107.02 -141 106 C-141.33 105.01 -141.66 104.02 -142 103 Z M-144 109 C-143 111 -143 111 -143 111 Z M-145 111 C-144 115 -144 115 -144 115 Z M-154 143 C-153.67 143.99 -153.34 144.98 -153 146 C-152.67 145.01 -152.34 144.02 -152 143 C-152.66 143 -153.32 143 -154 143 Z M-158 168 C-158.33 169.32 -158.66 170.64 -159 172 C-158.34 171.67 -157.68 171.34 -157 171 C-157.33 170.01 -157.66 169.02 -158 168 Z M-145 205 C-144 207 -144 207 -144 207 Z M-141 242 C-140.34 243.32 -139.68 244.64 -139 246 C-138.34 246 -137.68 246 -137 246 C-137 246.66 -137 247.32 -137 248 C-136.34 248 -135.68 248 -135 248 C-136.04874998 245.37812506 -136.64931313 244.20628639 -139.125 242.75 C-140.053125 242.37875 -140.053125 242.37875 -141 242 Z M-126 251 C-125.34 251.66 -124.68 252.32 -124 253 C-124 252.34 -124 251.68 -124 251 C-124.66 251 -125.32 251 -126 251 Z M-124 253 C-123.3045656 256.00384054 -123.3045656 256.00384054 -122 259 C-119.97445397 259.73595202 -119.97445397 259.73595202 -118 260 C-118.80847729 258.83054208 -119.62189112 257.66449539 -120.4375 256.5 C-120.88996094 255.8503125 -121.34242188 255.200625 -121.80859375 254.53125 C-122.20175781 254.0259375 -122.59492188 253.520625 -123 253 C-123.33 253 -123.66 253 -124 253 Z " fill="#EFEFEF" transform="translate(268,47)"/>
<path d="M0 0 C0.99 0.495 0.99 0.495 2 1 C2.33 1.99 2.66 2.98 3 4 C4.299375 3.979375 5.59875 3.95875 6.9375 3.9375 C8.29165633 3.91600546 9.64756083 3.92851801 11 4 C12.58403524 5.58403524 12.21974935 7.2771638 12.31640625 9.47265625 C12.37924805 10.82133789 12.37924805 10.82133789 12.44335938 12.19726562 C12.48267578 13.14279297 12.52199219 14.08832031 12.5625 15.0625 C12.60568359 16.01189453 12.64886719 16.96128906 12.69335938 17.93945312 C12.79979276 20.29281353 12.90181008 22.64628354 13 25 C13.13277344 23.74703125 13.26554688 22.4940625 13.40234375 21.203125 C13.58058291 19.55206754 13.7589764 17.90102673 13.9375 16.25 C14.06801758 15.0125 14.06801758 15.0125 14.20117188 13.75 C14.33168945 12.55117188 14.33168945 12.55117188 14.46484375 11.328125 C14.543396 10.5949707 14.62194824 9.86181641 14.70288086 9.10644531 C14.9973877 7.01852006 15.45117496 5.03447232 16 3 C17.32 2.67 18.64 2.34 20 2 C19.67 2.66 19.34 3.32 19 4 C18.34 4 17.68 4 17 4 C15.65278544 21.07681025 14.43021996 37.89198506 16 55 C16.14695313 56.69962891 16.14695313 56.69962891 16.296875 58.43359375 C16.50357134 60.62518286 16.74491012 62.8135153 17 65 C16.01 65.495 16.01 65.495 15 66 C15 82.17 15 98.34 15 115 C13.515 115.495 13.515 115.495 12 116 C12 100.16 12 84.32 12 68 C10.68 67.67 9.36 67.34 8 67 C7.94574987 64.12474331 7.90620723 61.25052354 7.875 58.375 C7.85824219 57.56675781 7.84148437 56.75851562 7.82421875 55.92578125 C7.81777344 55.13300781 7.81132812 54.34023438 7.8046875 53.5234375 C7.79421387 52.80075684 7.78374023 52.07807617 7.77294922 51.33349609 C8 49 8 49 9 46.24609375 C10.21710543 42.29525541 10.25109347 38.62696409 10.1953125 34.5390625 C10.1924826 33.74849457 10.18965271 32.95792664 10.18673706 32.1434021 C10.17560955 29.63710916 10.15051926 27.13118355 10.125 24.625 C10.11496058 22.91797394 10.10583641 21.21094223 10.09765625 19.50390625 C10.07569463 15.3357976 10.04121671 11.16796092 10 7 C9.01 6.67 8.02 6.34 7 6 C6.34 9.63 5.68 13.26 5 17 C4.01 17.33 3.02 17.66 2 18 C1.34 12.06 0.68 6.12 0 0 Z " fill="#555555" transform="translate(188,380)"/>
<path d="M0 0 C0 0.33 0 0.66 0 1 C-2.64 1.33 -5.28 1.66 -8 2 C-6.2941742 4.77119784 -6.2941742 4.77119784 -5 6 C-4.89992992 8.82256491 -4.86124402 11.6152319 -4.875 14.4375 C-4.87113281 15.22705078 -4.86726563 16.01660156 -4.86328125 16.83007812 C-4.87336933 22.74673867 -4.87336933 22.74673867 -6 25 C-6.66 25 -7.32 25 -8 25 C-8 56.02 -8 87.04 -8 119 C-8.99 119 -9.98 119 -11 119 C-12.17055483 107.56242615 -12.15365558 96.17191493 -12.125 84.6875 C-12.12444611 83.70409637 -12.12389221 82.72069275 -12.12332153 81.70748901 C-12.11385035 67.33358335 -11.88553437 52.98284989 -11.26806641 38.62182617 C-11.21956543 37.4279126 -11.17106445 36.23399902 -11.12109375 35.00390625 C-11.0739624 33.98111572 -11.02683105 32.9583252 -10.97827148 31.90454102 C-11.00121408 28.83770923 -11.41849327 26.00710862 -12 23 C-12.99 22.67 -13.98 22.34 -15 22 C-15 19.03 -15 16.06 -15 13 C-14.67 13 -14.34 13 -14 13 C-13.87882812 13.56589844 -13.75765625 14.13179688 -13.6328125 14.71484375 C-13.46523438 15.44832031 -13.29765625 16.18179687 -13.125 16.9375 C-12.96257812 17.66839844 -12.80015625 18.39929688 -12.6328125 19.15234375 C-12.17038477 21.20700294 -12.17038477 21.20700294 -10 22 C-9.67 15.07 -9.34 8.14 -9 1 C-5.8035914 -0.06546953 -3.34252724 -0.07427838 0 0 Z " fill="#999999" transform="translate(335,368)"/>
<path d="M0 0 C9.46329092 0.91580235 18.16000611 2.43298492 27 6 C27.99 6.33 28.98 6.66 30 7 C30 7.66 30 8.32 30 9 C30.52851563 9.20882812 31.05703125 9.41765625 31.6015625 9.6328125 C34.99269519 11.56586859 37.57115285 14.18098097 40.375 16.875 C43.57713917 19.9499514 46.61730935 22.74577124 50.328125 25.2109375 C53.34055185 27.22803033 54.04514024 28.56250486 55 32 C55.66 32 56.32 32 57 32 C57 32.99 57 33.98 57 35 C56.01 35 55.02 35 54 35 C54 34.34 54 33.68 54 33 C53.34 33 52.68 33 52 33 C52 32.34 52 31.68 52 31 C51.443125 30.7525 50.88625 30.505 50.3125 30.25 C48 29 48 29 45.875 27.125 C41.22435381 23.68756586 35.8345578 22.03114051 30.43359375 20.06640625 C27.96108541 18.98294754 26.16029258 17.748456 24.0625 16.0625 C20.86616392 13.58185208 17.70611538 11.66775192 14 10 C13.67 11.32 13.34 12.64 13 14 C10.5 12.75 10.5 12.75 8 11 C8 9.68 8 8.36 8 7 C7.06027344 7.03480469 7.06027344 7.03480469 6.1015625 7.0703125 C4.87566406 7.09738281 4.87566406 7.09738281 3.625 7.125 C2.81289063 7.14820312 2.00078125 7.17140625 1.1640625 7.1953125 C-1 7 -1 7 -3 5 C0.3 5 3.6 5 7 5 C7 4.01 7 3.02 7 2 C4.69 1.67 2.38 1.34 0 1 C0 0.67 0 0.34 0 0 Z " fill="#D3D3D3" transform="translate(323,69)"/>
<path d="M0 0 C0.33 4.62 0.66 9.24 1 14 C1.66 14 2.32 14 3 14 C3 15.65 3 17.3 3 19 C2.34 19.33 1.68 19.66 1 20 C1 36.17 1 52.34 1 69 C-0.485 69.495 -0.485 69.495 -2 70 C-2 53.5 -2 37 -2 20 C-2.66 20 -3.32 20 -4 20 C-4.08089542 17.22858283 -4.14044062 14.45952181 -4.1875 11.6875 C-4.22520508 10.50897461 -4.22520508 10.50897461 -4.26367188 9.30664062 C-4.27333984 8.54931641 -4.28300781 7.79199219 -4.29296875 7.01171875 C-4.3086792 6.31522217 -4.32438965 5.61872559 -4.34057617 4.90112305 C-3.94194268 2.67591946 -2.59480325 0 0 0 Z " fill="#E5E5E5" transform="translate(202,426)"/>
<path d="M0 0 C0 0.33 0 0.66 0 1 C-2.64 1.33 -5.28 1.66 -8 2 C-6.2941742 4.77119784 -6.2941742 4.77119784 -5 6 C-4.89992992 8.82256491 -4.86124402 11.6152319 -4.875 14.4375 C-4.87113281 15.22705078 -4.86726563 16.01660156 -4.86328125 16.83007812 C-4.87336933 22.74673867 -4.87336933 22.74673867 -6 25 C-6.66 25 -7.32 25 -8 25 C-8 56.02 -8 87.04 -8 119 C-8.33 119 -8.66 119 -9 119 C-9 80.06 -9 41.12 -9 1 C-5.8035914 -0.06546953 -3.34252724 -0.07427838 0 0 Z " fill="#131313" transform="translate(335,368)"/>
<path d="M0 0 C1 3 1 3 0.5625 5.59765625 C-0.28200478 10.70573724 -0.04206826 15.75985502 0.0390625 20.92382812 C0.08518813 25.74011262 -0.18186831 30.25100123 -1 35 C-3 33 -3 33 -3.22705078 30.66162109 C-3.21657715 29.70852051 -3.20610352 28.75541992 -3.1953125 27.7734375 C-3.18886719 26.7421875 -3.18242187 25.7109375 -3.17578125 24.6484375 C-3.15902344 23.56820312 -3.14226562 22.48796875 -3.125 21.375 C-3.11597656 20.28703125 -3.10695312 19.1990625 -3.09765625 18.078125 C-3.07403409 15.38519848 -3.04109556 12.69270745 -3 10 C-3.66 10 -4.32 10 -5 10 C-5.99 13.96 -6.98 17.92 -8 22 C-8.66 20.68 -9.32 19.36 -10 18 C-12.34058637 20.12780579 -13.70700306 22.11562221 -15 25 C-16.50533603 20.62084064 -15.45943286 18.07047315 -13.76953125 14.00390625 C-12.76344432 11.38399459 -12.34704323 8.77634581 -12 6 C-11.34 6 -10.68 6 -10 6 C-9.34 5.34 -8.68 4.68 -8 4 C-8 5.32 -8 6.64 -8 8 C-6.68 8.33 -5.36 8.66 -4 9 C-3.67 8.01 -3.34 7.02 -3 6 C-2.34 6 -1.68 6 -1 6 C-0.67 4.02 -0.34 2.04 0 0 Z " fill="#6C6D6C" transform="translate(134,152)"/>
<path d="M0 0 C0.99 0.33 1.98 0.66 3 1 C2.2884375 1.6496875 2.2884375 1.6496875 1.5625 2.3125 C-2.28773388 6.47075259 -1.05153212 12.49052416 -0.9609375 17.78125 C-0.91861771 21.95680227 -1.06315343 26.02085803 -1.49609375 30.17578125 C-2.17555742 37.01236016 -2.10875798 43.82352813 -2.0625 50.6875 C-2.05798828 51.97333984 -2.05347656 53.25917969 -2.04882812 54.58398438 C-2.03716001 57.72270653 -2.02079015 60.86132728 -2 64 C-2.99 64.495 -2.99 64.495 -4 65 C-5.65937015 61.6812597 -5.09840634 57.97392608 -5.0625 54.328125 C-5.05871338 53.45412048 -5.05492676 52.58011597 -5.05102539 51.67962646 C-5.03473755 47.94081806 -5.00700701 44.20211914 -4.97949219 40.46337891 C-4.90626222 29.58487449 -4.97576116 18.84138519 -6 8 C-5.34 8 -4.68 8 -4 8 C-2.68 5.36 -1.36 2.72 0 0 Z " fill="#767676" transform="translate(111,340)"/>
<path d="M0 0 C0.99 0.33 1.98 0.66 3 1 C2.01 1.495 2.01 1.495 1 2 C0.54193241 5.00212623 0.54193241 5.00212623 0.40625 8.63598633 C0.36922974 9.31003667 0.33220947 9.98408701 0.29406738 10.67856312 C-0.07683176 17.72296697 -0.30209148 24.77313749 -0.5 31.82421875 C-0.54068574 33.18651807 -0.58170912 34.54880734 -0.62304688 35.91108704 C-0.77344802 40.88926032 -0.91834667 45.86758962 -1.0625 50.84594727 C-1.18532523 55.08341785 -1.31076401 59.32079519 -1.43969727 63.55808449 C-1.49813696 65.51193078 -1.55284096 67.46588769 -1.60742188 69.41984558 C-1.83643306 76.97486058 -2.28521829 84.47511166 -3 92 C-3.66 92 -4.32 92 -5 92 C-5.19586395 79.22967069 -5.29923766 66.60998121 -3.78393555 53.91650391 C-2.76670626 44.92783063 -2.57240594 35.91772926 -2.34204102 26.87988281 C-1.72679559 3.45359117 -1.72679559 3.45359117 0 0 Z " fill="#595959" transform="translate(263,68)"/>
<path d="M0 0 C0.66 0.33 1.32 0.66 2 1 C-0.25740623 3.33524782 -2.2805761 5.18705073 -5 7 C-5.33 7.99 -5.66 8.98 -6 10 C-0.39 7.69 5.22 5.38 11 3 C11 3.66 11 4.32 11 5 C5.66273275 9.65775406 0.99065914 11.65046704 -6 12 C-7.66821323 12.32550502 -9.33499557 12.65846063 -11 13 C-13.33177975 13.34403308 -15.66487041 13.67949202 -18 14 C-18 12.68 -18 11.36 -18 10 C-16.09375 8.4375 -16.09375 8.4375 -13.5 7 C-12.5925 6.49339844 -11.685 5.98679687 -10.75 5.46484375 C-9.8425 4.98144531 -8.935 4.49804688 -8 4 C-7.21625 3.56816406 -6.4325 3.13632813 -5.625 2.69140625 C-3.78937712 1.7162316 -1.89802622 0.84733313 0 0 Z " fill="#A5A5A5" transform="translate(140,76)"/>
<path d="M0 0 C2.29633824 3.44450737 2.54016485 5.93812283 3 10 C3.66 10 4.32 10 5 10 C6.5078125 11.96875 6.5078125 11.96875 8.125 14.5 C8.93324219 15.75296875 8.93324219 15.75296875 9.7578125 17.03125 C10.16773438 17.6809375 10.57765625 18.330625 11 19 C10.01 19.33 9.02 19.66 8 20 C9.44253657 23.36591866 11.33264727 25.51047079 14 28 C13.67 28.66 13.34 29.32 13 30 C12.13375 29.195625 11.2675 28.39125 10.375 27.5625 C7.37123907 25.03075864 4.96796738 24.28342624 1 24 C1 23.34 1 22.68 1 22 C1.99 21.67 2.98 21.34 4 21 C1.9927092 17.9890638 1.16115776 17.36983503 -2 16 C-1.34 15.67 -0.68 15.34 0 15 C-0.99 13.35 -1.98 11.7 -3 10 C-2.34 10 -1.68 10 -1 10 C-0.67 10.66 -0.34 11.32 0 12 C0.21081851 8.10540926 0.21081851 8.10540926 -1 5 C-0.5625 2.3125 -0.5625 2.3125 0 0 Z " fill="#9C9C9C" transform="translate(149,291)"/>
<path d="M0 0 C1.32 0 2.64 0 4 0 C5.67573318 5.00408597 4.12750523 9.33005057 2 14 C0.1280544 16.14276006 -1.6064639 17.40430927 -4 19 C-5.27703716 12.35325237 -4.91047493 8.14433597 -2 2 C-1.34 1.34 -0.68 0.68 0 0 Z " fill="#8D8D8D" transform="translate(70,160)"/>
<path d="M0 0 C9.46329092 0.91580235 18.16000611 2.43298492 27 6 C27.99 6.33 28.98 6.66 30 7 C29.67 7.66 29.34 8.32 29 9 C23.14340094 7.33846988 17.5409866 5.52958084 12 3 C12 4.32 12 5.64 12 7 C13.92022703 8.77409808 13.92022703 8.77409808 16 10 C15.34 10 14.68 10 14 10 C13.67 11.32 13.34 12.64 13 14 C10.5 12.75 10.5 12.75 8 11 C8 9.68 8 8.36 8 7 C7.06027344 7.03480469 7.06027344 7.03480469 6.1015625 7.0703125 C4.87566406 7.09738281 4.87566406 7.09738281 3.625 7.125 C2.81289063 7.14820312 2.00078125 7.17140625 1.1640625 7.1953125 C-1 7 -1 7 -3 5 C0.3 5 3.6 5 7 5 C7 4.01 7 3.02 7 2 C4.69 1.67 2.38 1.34 0 1 C0 0.67 0 0.34 0 0 Z " fill="#656565" transform="translate(323,69)"/>
<path d="M0 0 C0.66 0.33 1.32 0.66 2 1 C2.81640625 3.58203125 2.81640625 3.58203125 3.5625 6.8125 C3.81128906 7.87082031 4.06007813 8.92914063 4.31640625 10.01953125 C4.54199219 11.00308594 4.76757812 11.98664063 5 13 C5.32973547 14.33422764 5.66135727 15.66800526 6 17 C7.32 17.33 8.64 17.66 10 18 C8.68 18.33 7.36 18.66 6 19 C6.37253906 19.89203125 6.74507812 20.7840625 7.12890625 21.703125 C7.60199219 22.87359375 8.07507813 24.0440625 8.5625 25.25 C9.03816406 26.41015625 9.51382813 27.5703125 10.00390625 28.765625 C11.01102236 32.03579024 10.96830948 32.90376422 10 36 C2.2956926 17.97562144 2.2956926 17.97562144 -0.5625 10.5625 C-0.87316406 9.75941406 -1.18382813 8.95632812 -1.50390625 8.12890625 C-2.24944455 4.92954897 -1.43628837 2.87257674 0 0 Z M0 6 C1 8 1 8 1 8 Z " fill="#474747" transform="translate(123,246)"/>
<path d="M0 0 C1.32 0.33 2.64 0.66 4 1 C3.01 1 2.02 1 1 1 C1.01160156 1.90878906 1.02320313 2.81757812 1.03515625 3.75390625 C1.10074176 12.88903054 0.72345524 21.89221529 0 31 C-0.66 31 -1.32 31 -2 31 C-2.99 21.43 -3.98 11.86 -5 2 C-6.65 2 -8.3 2 -10 2 C-10 1.67 -10 1.34 -10 1 C-8.02 1 -6.04 1 -4 1 C-3.01 3.97 -2.02 6.94 -1 10 C-0.67 6.7 -0.34 3.4 0 0 Z " fill="#686969" transform="translate(286,66)"/>
<path d="M0 0 C0.12375 0.639375 0.2475 1.27875 0.375 1.9375 C0.684375 2.9584375 0.684375 2.9584375 1 4 C1.66 4.33 2.32 4.66 3 5 C2.88610125 6.79240663 2.75852313 8.58394835 2.625 10.375 C2.55539063 11.37273437 2.48578125 12.37046875 2.4140625 13.3984375 C2 16 2 16 0 18 C-0.33 16.68 -0.66 15.36 -1 14 C-3.34058637 16.12780579 -4.70700306 18.11562221 -6 21 C-7.50533603 16.62084064 -6.45943286 14.07047315 -4.76953125 10.00390625 C-3.76344432 7.38399459 -3.34704323 4.77634581 -3 2 C-2.34 2 -1.68 2 -1 2 C-0.67 1.34 -0.34 0.68 0 0 Z " fill="#959494" transform="translate(125,156)"/>
<path d="M0 0 C-1.8375566 3.95474138 -4.16385982 7.57785633 -6.5 11.25 C-6.90347656 11.8996875 -7.30695313 12.549375 -7.72265625 13.21875 C-8.76024041 14.84875019 -9.87453662 16.42939066 -11 18 C-11.66 18 -12.32 18 -13 18 C-13.33 18.66 -13.66 19.32 -14 20 C-14 18 -14 16 -14 14 C-14.66 13.34 -15.32 12.68 -16 12 C-14.23139162 10.37251997 -12.46024324 8.74796543 -10.6875 7.125 C-10.18798828 6.66480469 -9.68847656 6.20460938 -9.17382812 5.73046875 C-2.90353261 0 -2.90353261 0 0 0 Z " fill="#9D9D9D" transform="translate(387,311)"/>
<path d="M0 0 C0.99 0 1.98 0 3 0 C3 0.66 3 1.32 3 2 C4.32 2.33 5.64 2.66 7 3 C7 3.66 7 4.32 7 5 C9.31 5.33 11.62 5.66 14 6 C14 6.99 14 7.98 14 9 C10.37 9 6.74 9 3 9 C2.67 7.68 2.34 6.36 2 5 C-0.97 5 -3.94 5 -7 5 C-4.4345406 2.4345406 -2.52313332 2.45953913 1 2 C0.67 1.34 0.34 0.68 0 0 Z " fill="#686868" transform="translate(316,65)"/>
<path d="M0 0 C6.36478536 3.38129222 12.2205154 8.62307983 17 14 C17 14.66 17 15.32 17 16 C17.66 16 18.32 16 19 16 C19 16.99 19 17.98 19 19 C18.01 19 17.02 19 16 19 C16 18.34 16 17.68 16 17 C15.34 17 14.68 17 14 17 C14 16.34 14 15.68 14 15 C13.443125 14.7525 12.88625 14.505 12.3125 14.25 C9.60129056 12.78448139 7.40381744 10.92305395 5 9 C3.68861096 8.29114106 2.36222983 7.60543548 1 7 C2.32 6.67 3.64 6.34 5 6 C4.175 5.38125 3.35 4.7625 2.5 4.125 C1.675 3.42375 0.85 2.7225 0 2 C0 1.34 0 0.68 0 0 Z " fill="#727272" transform="translate(361,85)"/>
<path d="M0 0 C0.33 0 0.66 0 1 0 C1 1.65 1 3.3 1 5 C0.01 5.495 0.01 5.495 -1 6 C-1 22.17 -1 38.34 -1 55 C-2.485 55.495 -2.485 55.495 -4 56 C-3.67 38.84 -3.34 21.68 -3 4 C-2.01 4 -1.02 4 0 4 C0 2.68 0 1.36 0 0 Z " fill="#464646" transform="translate(204,440)"/>
<path d="M0 0 C0 0.33 0 0.66 0 1 C-2.64 1.33 -5.28 1.66 -8 2 C-6.2941742 4.77119784 -6.2941742 4.77119784 -5 6 C-4.92674832 8.86267567 -4.90761795 11.700719 -4.9375 14.5625 C-4.94201172 15.36880859 -4.94652344 16.17511719 -4.95117188 17.00585938 C-4.96299482 19.00393756 -4.98093086 21.00197783 -5 23 C-5.99 23.33 -6.98 23.66 -8 24 C-8.75166913 16.30881404 -9.13690844 8.72772107 -9 1 C-5.8035914 -0.06546953 -3.34252724 -0.07427838 0 0 Z " fill="#383938" transform="translate(335,368)"/>
<path d="M0 0 C4.36109605 0.50710419 7.45075299 1.36341651 11 4 C11.33 4.99 11.66 5.98 12 7 C11.01 8.485 11.01 8.485 10 10 C8.02 9.34 6.04 8.68 4 8 C4 7.34 4 6.68 4 6 C2.02 5.34 0.04 4.68 -2 4 C-1.34 2.68 -0.68 1.36 0 0 Z " fill="#D6D6D6" transform="translate(335,72)"/>
<path d="M0 0 C0.38499671 6.35244568 -1.97435332 12.067749 -4 18 C-6.26562673 15.73437327 -6.94462749 14.15839295 -7.09765625 10.95703125 C-7.06510417 8.97135417 -7.03255208 6.98567708 -7 5 C-6.34 4.67 -5.68 4.34 -5 4 C-4.34 3.01 -3.68 2.02 -3 1 C-1 0 -1 0 0 0 Z " fill="#C4C4C4" transform="translate(298,67)"/>
<path d="M0 0 C0.99 0.33 1.98 0.66 3 1 C6.13829122 8.13248004 3.35491724 17.74151481 2 25 C1.67 25 1.34 25 1 25 C0.66198848 22.45887768 0.32946621 19.91723254 0 17.375 C-0.09539062 16.66214844 -0.19078125 15.94929687 -0.2890625 15.21484375 C-1.61930877 4.85792632 -1.61930877 4.85792632 0 0 Z " fill="#4D4E4E" transform="translate(119,222)"/>
<path d="M0 0 C0.680625 0.28875 1.36125 0.5775 2.0625 0.875 C2.125 3.125 2.125 3.125 1.0625 5.875 C-2.72506167 8.23187237 -6.45687987 9.875 -10.9375 9.875 C-10.21313567 5.5002207 -8.1153082 3.73712984 -4.79296875 1.00390625 C-2.9375 -0.125 -2.9375 -0.125 0 0 Z " fill="#F6F6F6" transform="translate(144.9375,76.125)"/>
<path d="M0 0 C4.53585575 4.53585575 3.04674704 13.72041907 3.06591797 19.84936523 C3.06097135 23.23320581 3.03570097 26.6163415 3 30 C2.34 30.33 1.68 30.66 1 31 C-0.43509221 28.12981559 -0.11158506 25.66456277 -0.09765625 22.4609375 C-0.09443359 21.15898437 -0.09121094 19.85703125 -0.08789062 18.515625 C-0.07953466 17.13541601 -0.07106971 15.75520768 -0.0625 14.375 C-0.05748501 12.98698074 -0.0529221 11.59895978 -0.04882812 10.2109375 C-0.03700976 6.80724868 -0.02053434 3.40364561 0 0 Z " fill="#828282" transform="translate(106,374)"/>
<path d="M0 0 C0.99 0 1.98 0 3 0 C3.02714735 2.22909871 3.04646254 4.45829367 3.0625 6.6875 C3.07410156 7.92886719 3.08570313 9.17023438 3.09765625 10.44921875 C3.01478673 13.46235454 2.70839449 16.08275339 2 19 C1.34 19 0.68 19 0 19 C-0.19600577 16.77156512 -0.38146569 14.54220107 -0.5625 12.3125 C-0.66691406 11.07113281 -0.77132813 9.82976562 -0.87890625 8.55078125 C-0.98493841 5.44164467 -0.77228525 2.99189028 0 0 Z " fill="#767676" transform="translate(297,76)"/>
<path d="M0 0 C0.99 0.495 0.99 0.495 2 1 C2.33 1.99 2.66 2.98 3 4 C4.32 4.33 5.64 4.66 7 5 C6.34 8.96 5.68 12.92 5 17 C4.01 17.33 3.02 17.66 2 18 C1.34 12.06 0.68 6.12 0 0 Z " fill="#787878" transform="translate(188,380)"/>
<path d="M0 0 C0 0.99 0 1.98 0 3 C0.66 3.66 1.32 4.32 2 5 C-1.97977076 5.8441938 -5.97007218 6.44687265 -10 7 C-10 3 -10 3 -8.375 1.25 C-5.42277246 -0.30380397 -3.29014997 -0.22432841 0 0 Z " fill="#CACACA" transform="translate(132,83)"/>
<path d="M0 0 C0.99 0 1.98 0 3 0 C4.00577013 2.76886123 5.00480147 5.53984104 6 8.3125 C6.28617188 9.09818359 6.57234375 9.88386719 6.8671875 10.69335938 C7.13789063 11.45068359 7.40859375 12.20800781 7.6875 12.98828125 C8.06455078 14.03302612 8.06455078 14.03302612 8.44921875 15.09887695 C9 17 9 17 9 20 C8.34 20 7.68 20 7 20 C3.75956186 13.3830748 1.30960645 7.26236302 0 0 Z " fill="#424242" transform="translate(126,240)"/>
<path d="M0 0 C4.61788206 4.61788206 3.05627102 14.55195101 3.0625 20.6875 C3.04667887 22.79171032 3.02764495 24.8959118 3 27 C2.34 27 1.68 27 1 27 C-0.01894076 21.15111957 -0.11798453 15.49080831 -0.0625 9.5625 C-0.05798828 8.64017578 -0.05347656 7.71785156 -0.04882812 6.76757812 C-0.03713938 4.51164952 -0.02075455 2.25586033 0 0 Z " fill="#656666" transform="translate(215,384)"/>
<path d="M0 0 C1.32 0.33 2.64 0.66 4 1 C4.33 9.25 4.66 17.5 5 26 C4.34 26 3.68 26 3 26 C2.09958689 17.97667603 1.88452677 10.07029553 2 2 C1.34 2 0.68 2 0 2 C0 1.34 0 0.68 0 0 Z " fill="#626262" transform="translate(122,349)"/>
<path d="M0 0 C2.1875 0.0625 2.1875 0.0625 5 1 C6.93157957 3.1717219 8.48201687 5.52601047 10 8 C7.3125 8.3125 7.3125 8.3125 4 8 C1.125 5.5 1.125 5.5 -1 3 C-0.67 2.01 -0.34 1.02 0 0 Z " fill="#CBCCCB" transform="translate(157,310)"/>
<path d="M0 0 C0.66 0 1.32 0 2 0 C2.33 0.66 2.66 1.32 3 2 C3.33 1.34 3.66 0.68 4 0 C4.66 0.33 5.32 0.66 6 1 C4.63629701 3.99220268 3.05091917 6.29026529 0.875 8.75 C0.06675781 9.67039062 0.06675781 9.67039062 -0.7578125 10.609375 C-1.16773437 11.06828125 -1.57765625 11.5271875 -2 12 C-3.15957207 8.52128379 -2.77456651 7.65780355 -1.5625 4.3125 C-1.13130859 3.10013672 -1.13130859 3.10013672 -0.69140625 1.86328125 C-0.46324219 1.24839844 -0.23507813 0.63351563 0 0 Z M1 3 C2 5 2 5 2 5 Z " fill="#A2A2A2" transform="translate(97,116)"/>
<path d="M0 0 C0.33 0 0.66 0 1 0 C1 6.27 1 12.54 1 19 C1.66 19 2.32 19 3 19 C3 19.66 3 20.32 3 21 C1.68 20.67 0.36 20.34 -1 20 C-1.02689449 17.04160645 -1.04678741 14.08345573 -1.0625 11.125 C-1.07087891 10.28324219 -1.07925781 9.44148438 -1.08789062 8.57421875 C-1.09111328 7.76855469 -1.09433594 6.96289062 -1.09765625 6.1328125 C-1.10289307 5.38918457 -1.10812988 4.64555664 -1.11352539 3.87939453 C-1 2 -1 2 0 0 Z " fill="#555555" transform="translate(197,427)"/>
<path d="M0 0 C1.27351308 2.54702616 0.80191925 3.4282945 0.0625 6.125 C-0.13214844 6.84945312 -0.32679688 7.57390625 -0.52734375 8.3203125 C-0.68332031 8.87460938 -0.83929688 9.42890625 -1 10 C-1.66 10 -2.32 10 -3 10 C-3 15.94 -3 21.88 -3 28 C-3.33 28 -3.66 28 -4 28 C-4 20.41 -4 12.82 -4 5 C-3.34 5 -2.68 5 -2 5 C-1.34 3.35 -0.68 1.7 0 0 Z " fill="#A2A2A2" transform="translate(207,88)"/>
<path d="M0 0 C0.33 0 0.66 0 1 0 C1.22134176 2.12368444 1.42670007 4.24904024 1.625 6.375 C1.74101563 7.55835938 1.85703125 8.74171875 1.9765625 9.9609375 C1.98429687 10.96382812 1.99203125 11.96671875 2 13 C1.34 13.66 0.68 14.32 0 15 C-2.29379749 11.55930376 -3 10.27709699 -3 6 C-2.01 6 -1.02 6 0 6 C0 4.02 0 2.04 0 0 Z " fill="#BCBCBC" transform="translate(119,239)"/>
<path d="M0 0 C0.33 0 0.66 0 1 0 C1 1.65 1 3.3 1 5 C2.65 5.33 4.3 5.66 6 6 C4.60667426 9.36720387 3.0210714 10.9859524 0 13 C-0.19658808 11.58456585 -0.38187546 10.16755969 -0.5625 8.75 C-0.66691406 7.96109375 -0.77132812 7.1721875 -0.87890625 6.359375 C-1.00027349 3.99467126 -0.69633257 2.2488963 0 0 Z " fill="#818181" transform="translate(66,166)"/>
<path d="M0 0 C1.45792884 -0.05399736 2.91642712 -0.09279177 4.375 -0.125 C5.18710938 -0.14820313 5.99921875 -0.17140625 6.8359375 -0.1953125 C9 0 9 0 11 2 C11 2.99 11 3.98 11 5 C11.66 5.33 12.32 5.66 13 6 C8.39146203 5.27991594 4.32762591 3.68704061 0 2 C0 1.34 0 0.68 0 0 Z " fill="#B2B0B1" transform="translate(170,320)"/>
<path d="M0 0 C0.66 0 1.32 0 2 0 C3.1875 2.1875 3.1875 2.1875 4 5 C2.625 7.8125 2.625 7.8125 1 10 C0.34 9.67 -0.32 9.34 -1 9 C-1.66 9.66 -2.32 10.32 -3 11 C-2.44894091 7.0507432 -1.61064629 3.65079826 0 0 Z " fill="#777777" transform="translate(87,130)"/>
<path d="M0 0 C4.455 0.99 4.455 0.99 9 2 C9 2.99 9 3.98 9 5 C5.7 5 2.4 5 -1 5 C-0.67 3.35 -0.34 1.7 0 0 Z " fill="#F2F2F2" transform="translate(321,69)"/>
<path d="M0 0 C2.97 0.495 2.97 0.495 6 1 C7.1577506 4.47325181 7.06866652 7.36067448 7 11 C6.01 11 5.02 11 4 11 C3 4.25 3 4.25 3 2 C2.01 1.34 1.02 0.68 0 0 Z " fill="#545454" transform="translate(173,377)"/>
<path d="M0 0 C1.1055189 0.93590504 2.20935453 1.87379858 3.3125 2.8125 C3.92738281 3.33457031 4.54226562 3.85664063 5.17578125 4.39453125 C6.85424679 5.87172469 8.43882034 7.40039131 10 9 C9.67 9.66 9.34 10.32 9 11 C8.13375 10.195625 7.2675 9.39125 6.375 8.5625 C3.37123907 6.03075864 0.96796738 5.28342624 -3 5 C-3 4.34 -3 3.68 -3 3 C-2.01 2.67 -1.02 2.34 0 2 C0 1.34 0 0.68 0 0 Z " fill="#888888" transform="translate(153,310)"/>
<path d="M0 0 C0.33 0 0.66 0 1 0 C1.38499671 6.35244568 -0.97435332 12.067749 -3 18 C-3.66 17.34 -4.32 16.68 -5 16 C-4.67 15.01 -4.34 14.02 -4 13 C-3.855625 11.88625 -3.71125 10.7725 -3.5625 9.625 C-2.44897959 2.44897959 -2.44897959 2.44897959 0 0 Z " fill="#777777" transform="translate(297,67)"/>
<path d="M0 0 C0.33 0 0.66 0 1 0 C1.12068471 6.39628979 0.65486092 12.63849395 0 19 C-0.66 19 -1.32 19 -2 19 C-3.13835673 14.21890172 -2.67624234 11.56310414 -1 7 C-0.62468554 4.67305036 -0.28082798 2.34023315 0 0 Z " fill="#3F3F3F" transform="translate(109,357)"/>
<path d="M0 0 C0.33 0.66 0.66 1.32 1 2 C-4.40577841 6.11868832 -8.08004293 8.88339877 -15 8 C-11.9377256 5.51372483 -8.8542946 3.90010596 -5.25 2.3125 C-4.26515625 1.87550781 -3.2803125 1.43851562 -2.265625 0.98828125 C-1.14414063 0.49908203 -1.14414063 0.49908203 0 0 Z " fill="#272727" transform="translate(150,79)"/>
<path d="M0 0 C6.6 0 13.2 0 20 0 C20 1.98 20 3.96 20 6 C19.34 6 18.68 6 18 6 C18 4.68 18 3.36 18 2 C12.06 2 6.12 2 0 2 C0 1.34 0 0.68 0 0 Z " fill="#5C5C5C" transform="translate(248,47)"/>
<path d="M0 0 C0.66 0.33 1.32 0.66 2 1 C2 2.98 2 4.96 2 7 C-1 7 -1 7 -3 6 C-3 4.35 -3 2.7 -3 1 C-2.01 0.67 -1.02 0.34 0 0 Z " fill="#F5F5F5" transform="translate(70,165)"/>
<path d="M0 0 C1.67542976 0.28604898 3.34385343 0.61781233 5 1 C5.33 1.99 5.66 2.98 6 4 C4.02 4.66 2.04 5.32 0 6 C-0.38218767 4.34385343 -0.71395102 2.67542976 -1 1 C-0.67 0.67 -0.34 0.34 0 0 Z " fill="#828382" transform="translate(287,335)"/>
<path d="M0 0 C-1.52708963 3.43595166 -3.59927045 6.11912454 -6 9 C-6.33 8.34 -6.66 7.68 -7 7 C-7.66 6.67 -8.32 6.34 -9 6 C-7.8803014 4.99406757 -6.7540588 3.9954151 -5.625 3 C-4.68527344 2.1646875 -4.68527344 2.1646875 -3.7265625 1.3125 C-2 0 -2 0 0 0 Z " fill="#616462" transform="translate(387,311)"/>
<path d="M0 0 C0.33 0 0.66 0 1 0 C3.23744912 7.89687924 3.23744912 7.89687924 2 12 C1.6503582 14.33094534 1.31445513 16.66404762 1 19 C0.67 19 0.34 19 0 19 C0 12.73 0 6.46 0 0 Z " fill="#363636" transform="translate(117,206)"/>
<path d="M0 0 C1.98 0.99 3.96 1.98 6 3 C6 5.64 6 8.28 6 11 C5.34 11 4.68 11 4 11 C3.34 9.35 2.68 7.7 2 6 C2.66 5.34 3.32 4.68 4 4 C3.01 4 2.02 4 1 4 C0.67 2.68 0.34 1.36 0 0 Z " fill="#575757" transform="translate(112,186)"/>
<path d="M0 0 C1.98 0.66 3.96 1.32 6 2 C5.67 3.32 5.34 4.64 5 6 C4.01 6 3.02 6 2 6 C2 5.34 2 4.68 2 4 C0.68 3.67 -0.64 3.34 -2 3 C-1.34 2.01 -0.68 1.02 0 0 Z " fill="#D5D5D5" transform="translate(184,326)"/>
<path d="M0 0 C0.66 0 1.32 0 2 0 C2 4.29 2 8.58 2 13 C1.34 13 0.68 13 0 13 C0 8.71 0 4.42 0 0 Z " fill="#393B3A" transform="translate(321,411)"/>
<path d="M0 0 C-0.66 0 -1.32 0 -2 0 C-2.103125 0.639375 -2.20625 1.27875 -2.3125 1.9375 C-2.539375 2.618125 -2.76625 3.29875 -3 4 C-6 5 -6 5 -8.1875 4.0625 C-8.785625 3.711875 -9.38375 3.36125 -10 3 C-3.375 -1.125 -3.375 -1.125 0 0 Z " fill="#868686" transform="translate(152,72)"/>
<path d="M0 0 C0.99 0 1.98 0 3 0 C1.90931332 3.77545388 1.0916909 6.47043472 -2 9 C-2.125 5.625 -2.125 5.625 -2 2 C-1.34 1.34 -0.68 0.68 0 0 Z " fill="#A0A0A0" transform="translate(219,388)"/>
<path d="M0 0 C7.42857143 -0.14285714 7.42857143 -0.14285714 11 1 C11 1.66 11 2.32 11 3 C3.57142857 3.28571429 3.57142857 3.28571429 0 1 C0 0.67 0 0.34 0 0 Z " fill="#484848" transform="translate(244,354)"/>
<path d="M0 0 C0.66 0.33 1.32 0.66 2 1 C-0.85276137 3.93200474 -3.65079784 6.64315404 -7 9 C-7.66 8.67 -8.32 8.34 -9 8 C-6.37347975 4.40069448 -4.06036357 1.92333011 0 0 Z " fill="#6F6F6F" transform="translate(359,333)"/>
<path d="M0 0 C0.33 0 0.66 0 1 0 C1 3.63 1 7.26 1 11 C0.34 11 -0.32 11 -1 11 C-2.23076923 4.6 -2.23076923 4.6 -1.0625 1.5625 C-0.711875 1.046875 -0.36125 0.53125 0 0 Z " fill="#1E2020" transform="translate(217,400)"/>
<path d="M0 0 C0.33 0 0.66 0 1 0 C1.33 3.3 1.66 6.6 2 10 C1.01 9.67 0.02 9.34 -1 9 C-1.09765625 2.84765625 -1.09765625 2.84765625 -1 1 C-0.67 0.67 -0.34 0.34 0 0 Z " fill="#404040" transform="translate(72,148)"/>
<path d="M0 0 C2.97 0.495 2.97 0.495 6 1 C4.68 2.32 3.36 3.64 2 5 C0.68 4.34 -0.64 3.68 -2 3 C-1.34 2.01 -0.68 1.02 0 0 Z " fill="#E7E7E7" transform="translate(335,72)"/>
<path d="M0 0 C1.32 0.66 2.64 1.32 4 2 C3.01 3.485 3.01 3.485 2 5 C0.02 4.34 -1.96 3.68 -4 3 C-2.68 2.01 -1.36 1.02 0 0 Z " fill="#818181" transform="translate(306,376)"/>
<path d="M0 0 C1.32 0.66 2.64 1.32 4 2 C-1.2734375 5.22265625 -1.2734375 5.22265625 -3 6 C-3.66 5.67 -4.32 5.34 -5 5 C-3.35 3.35 -1.7 1.7 0 0 Z " fill="#919191" transform="translate(180,89)"/>
<path d="M0 0 C0.66 0 1.32 0 2 0 C1.67 2.31 1.34 4.62 1 7 C0.34 7 -0.32 7 -1 7 C-1.33 7.66 -1.66 8.32 -2 9 C-1.125 2.25 -1.125 2.25 0 0 Z " fill="#545454" transform="translate(97,116)"/>
<path d="M0 0 C0.66 0 1.32 0 2 0 C2 0.66 2 1.32 2 2 C3.11375 1.79375 4.2275 1.5875 5.375 1.375 C6.57125 1.25125 7.7675 1.1275 9 1 C9.66 1.66 10.32 2.32 11 3 C7.37 3.33 3.74 3.66 0 4 C0 2.68 0 1.36 0 0 Z " fill="#4E4E4E" transform="translate(122,86)"/>
<path d="M0 0 C0.99 0.33 1.98 0.66 3 1 C3 3.31 3 5.62 3 8 C1.5 6.8125 1.5 6.8125 0 5 C-0.1875 2.3125 -0.1875 2.3125 0 0 Z " fill="#FAFAFA" transform="translate(283,69)"/>
<path d="M0 0 C-2.39763185 2.39763185 -3.33273498 2.34280586 -6.625 2.625 C-7.44226563 2.69976562 -8.25953125 2.77453125 -9.1015625 2.8515625 C-9.72804688 2.90054687 -10.35453125 2.94953125 -11 3 C-7.74003139 -0.25996861 -4.40088745 -1.46696248 0 0 Z " fill="#777777" transform="translate(320,355)"/>
<path d="M0 0 C-0.33 1.32 -0.66 2.64 -1 4 C-2.32 4.33 -3.64 4.66 -5 5 C-5 3.68 -5 2.36 -5 1 C-3 0 -3 0 0 0 Z " fill="#C0C0C0" transform="translate(134,264)"/>
<path d="M0 0 C0.66 0.33 1.32 0.66 2 1 C1 4 1 4 -2 6 C-2.99 5.67 -3.98 5.34 -5 5 C-3.35 3.35 -1.7 1.7 0 0 Z " fill="#A0A0A0" transform="translate(113,103)"/>
<path d="M0 0 C2.475 0.495 2.475 0.495 5 1 C4.67 1.66 4.34 2.32 4 3 C2.68 2.67 1.36 2.34 0 2 C0 1.34 0 0.68 0 0 Z " fill="#626464" transform="translate(180,128)"/>
<path d="M0 0 C0.66 0 1.32 0 2 0 C2 0.99 2 1.98 2 3 C0.68 3.33 -0.64 3.66 -2 4 C-1.34 2.68 -0.68 1.36 0 0 Z " fill="#454847" transform="translate(117,88)"/>
<path d="M0 0 C0.66 0.66 1.32 1.32 2 2 C1.67 2.66 1.34 3.32 1 4 C0.01 4 -0.98 4 -2 4 C-2 3.01 -2 2.02 -2 1 C-1.34 0.67 -0.68 0.34 0 0 Z " fill="#4C4D4D" transform="translate(242,78)"/>
<path d="M0 0 C0.66 0 1.32 0 2 0 C2 0.66 2 1.32 2 2 C1.34 2 0.68 2 0 2 C0 1.34 0 0.68 0 0 Z " fill="#161616" transform="translate(61,240)"/>
<path d="" fill="currentColor" transform="translate(0,0)"/>
<path d="" fill="currentColor" transform="translate(0,0)"/>
<path d="" fill="currentColor" transform="translate(0,0)"/>
<path d="" fill="currentColor" transform="translate(0,0)"/>
<path d="" fill="currentColor" transform="translate(0,0)"/>
<path d="" fill="currentColor" transform="translate(0,0)"/>
<path d="" fill="currentColor" transform="translate(0,0)"/>
<path d="" fill="currentColor" transform="translate(0,0)"/>
<path d="" fill="currentColor" transform="translate(0,0)"/>
<path d="" fill="currentColor" transform="translate(0,0)"/>
<path d="" fill="currentColor" transform="translate(0,0)"/>
<path d="" fill="currentColor" transform="translate(0,0)"/>
<path d="" fill="currentColor" transform="translate(0,0)"/>
<path d="" fill="currentColor" transform="translate(0,0)"/>
<path d="" fill="currentColor" transform="translate(0,0)"/>
<path d="" fill="currentColor" transform="translate(0,0)"/>
<path d="" fill="currentColor" transform="translate(0,0)"/>
<path d="" fill="currentColor" transform="translate(0,0)"/>
<path d="" fill="currentColor" transform="translate(0,0)"/>
<path d="" fill="currentColor" transform="translate(0,0)"/>
<path d="" fill="currentColor" transform="translate(0,0)"/>
<path d="" fill="currentColor" transform="translate(0,0)"/>
<path d="" fill="currentColor" transform="translate(0,0)"/>
<path d="" fill="currentColor" transform="translate(0,0)"/>
<path d="" fill="currentColor" transform="translate(0,0)"/>
<path d="" fill="currentColor" transform="translate(0,0)"/>
<path d="" fill="currentColor" transform="translate(0,0)"/>
<path d="" fill="currentColor" transform="translate(0,0)"/>
<path d="" fill="currentColor" transform="translate(0,0)"/>
<path d="" fill="currentColor" transform="translate(0,0)"/>
<path d="" fill="currentColor" transform="translate(0,0)"/>
<path d="" fill="currentColor" transform="translate(0,0)"/>
<path d="" fill="currentColor" transform="translate(0,0)"/>
<path d="" fill="currentColor" transform="translate(0,0)"/>
<path d="" fill="currentColor" transform="translate(0,0)"/>
<path d="" fill="currentColor" transform="translate(0,0)"/>
<path d="" fill="currentColor" transform="translate(0,0)"/>
<path d="" fill="currentColor" transform="translate(0,0)"/>
<path d="" fill="currentColor" transform="translate(0,0)"/>
<path d="" fill="currentColor" transform="translate(0,0)"/>
<path d="" fill="currentColor" transform="translate(0,0)"/>
<path d="" fill="currentColor" transform="translate(0,0)"/>
<path d="" fill="currentColor" transform="translate(0,0)"/>
<path d="" fill="currentColor" transform="translate(0,0)"/>
<path d="" fill="currentColor" transform="translate(0,0)"/>
<path d="" fill="currentColor" transform="translate(0,0)"/>
<path d="" fill="currentColor" transform="translate(0,0)"/>
<path d="" fill="currentColor" transform="translate(0,0)"/>
<path d="" fill="currentColor" transform="translate(0,0)"/>
<path d="" fill="currentColor" transform="translate(0,0)"/>
<path d="" fill="currentColor" transform="translate(0,0)"/>
<path d="" fill="currentColor" transform="translate(0,0)"/>
<path d="" fill="currentColor" transform="translate(0,0)"/>
<path d="" fill="currentColor" transform="translate(0,0)"/>
<path d="" fill="currentColor" transform="translate(0,0)"/>
<path d="" fill="currentColor" transform="translate(0,0)"/>
<path d="" fill="currentColor" transform="translate(0,0)"/>
<path d="" fill="currentColor" transform="translate(0,0)"/>
<path d="" fill="currentColor" transform="translate(0,0)"/>
<path d="" fill="currentColor" transform="translate(0,0)"/>
<path d="" fill="currentColor" transform="translate(0,0)"/>
<path d="" fill="currentColor" transform="translate(0,0)"/>
<path d="" fill="currentColor" transform="translate(0,0)"/>
<path d="" fill="currentColor" transform="translate(0,0)"/>
<path d="" fill="currentColor" transform="translate(0,0)"/>
<path d="" fill="currentColor" transform="translate(0,0)"/>
</svg>
